<svg xmlns="http://www.w3.org/2000/svg" width="41" height="25" viewBox="0 0 41 25" fill="none">
    <path d="M13.5 23.75C14.4283 23.75 15.3185 23.3812 15.9749 22.7249C16.6313 22.0685 17 21.1783 17 20.25C17 19.3217 16.6313 18.4315 15.9749 17.7751C15.3185 17.1187 14.4283 16.75 13.5 16.75C12.5717 16.75 11.6815 17.1187 11.0251 17.7751C10.3687 18.4315 10 19.3217 10 20.25C10 21.1783 10.3687 22.0685 11.0251 22.7249C11.6815 23.3812 12.5717 23.75 13.5 23.75ZM31 23.75C31.9283 23.75 32.8185 23.3812 33.4749 22.7249C34.1313 22.0685 34.5 21.1783 34.5 20.25C34.5 19.3217 34.1313 18.4315 33.4749 17.7751C32.8185 17.1187 31.9283 16.75 31 16.75C30.0717 16.75 29.1815 17.1187 28.5251 17.7751C27.8687 18.4315 27.5 19.3217 27.5 20.25C27.5 21.1783 27.8687 22.0685 28.5251 22.7249C29.1815 23.3812 30.0717 23.75 31 23.75Z" stroke="black" stroke-width="2" stroke-miterlimit="1.5" stroke-linecap="round" stroke-linejoin="round"/>
    <path d="M17.0874 20.25H25.7499V2.05C25.7499 1.77152 25.6393 1.50445 25.4423 1.30754C25.2454 1.11062 24.9784 1 24.6999 1H1.24988M9.38738 20.25H5.79988C5.66199 20.25 5.52545 20.2228 5.39806 20.1701C5.27067 20.1173 5.15492 20.04 5.05742 19.9425C4.95991 19.845 4.88257 19.7292 4.8298 19.6018C4.77704 19.4744 4.74988 19.3379 4.74988 19.2V10.625" stroke="black" stroke-width="2" stroke-linecap="round"/>
    <path d="M3 6.25H10" stroke="black" stroke-width="2" stroke-linecap="round" stroke-linejoin="round"/>
    <path d="M25.75 6.25H35.5675C35.7705 6.25005 35.9691 6.30892 36.1393 6.41949C36.3095 6.53006 36.444 6.68758 36.5265 6.873L39.659 13.922C39.7187 14.0558 39.7497 14.2007 39.75 14.3472V19.2C39.75 19.3379 39.7228 19.4744 39.6701 19.6018C39.6173 19.7292 39.54 19.845 39.4425 19.9425C39.345 20.04 39.2292 20.1173 39.1018 20.1701C38.9744 20.2228 38.8379 20.25 38.7 20.25H35.375M25.75 20.25H27.5" stroke="black" stroke-width="2" stroke-linecap="round"/>
</svg>
